<svg width="32" height="32" viewBox="0 0 32 32" fill="none" xmlns="http://www.w3.org/2000/svg">
<g clip-path="url(#clip0_3109_26342)">
<rect width="32" height="32" rx="16" fill="#111111"/>
<path d="M22.5776 8.78208C22.5776 8.72747 22.5837 8.63948 22.5958 8.51812C22.614 8.39675 22.6231 8.30573 22.6231 8.24505C22.6413 8.05694 22.6565 7.65644 22.6686 7.04356V6.06962C22.6686 5.97253 22.7232 5.89971 22.8325 5.85117C23.0691 5.74801 23.591 5.69036 24.398 5.67822C24.4041 5.67822 24.4284 5.68733 24.4708 5.70553C24.483 5.89971 24.4982 6.14244 24.5164 6.43371C24.5406 6.71891 24.5528 6.91916 24.5528 7.03445C24.5588 7.14368 24.5558 7.32269 24.5437 7.57149C24.5376 7.82028 24.5194 8.12369 24.4891 8.48171C24.483 8.54239 24.4617 8.73354 24.4253 9.05515C24.3889 9.37069 24.3677 9.56184 24.3616 9.62859C24.3434 9.77422 24.2615 9.84704 24.1159 9.84704C24.0491 9.84097 23.8428 9.83794 23.4969 9.83794C23.151 9.83794 22.9265 9.8349 22.8233 9.82884C22.6534 9.82884 22.5685 9.57094 22.5685 9.05515C22.5685 9.04301 22.5685 9.00053 22.5685 8.92772C22.5746 8.84883 22.5776 8.80029 22.5776 8.78208ZM20.2929 7.44405C20.0563 7.44405 19.9379 7.52294 19.9379 7.68071C19.9319 7.76567 19.9288 7.84759 19.9288 7.92647C19.9288 8.01143 19.9561 8.08121 20.0108 8.13582C20.0714 8.19044 20.1473 8.22685 20.2383 8.24505C20.4386 8.26932 20.7056 8.28753 21.0393 8.29966C21.276 8.3118 21.4519 8.37551 21.5672 8.49081C21.6886 8.6061 21.7007 8.77905 21.6037 9.00964C21.6037 9.0157 21.6006 9.02481 21.5945 9.03694C21.5824 9.09156 21.5703 9.17348 21.5581 9.2827C21.546 9.38586 21.5339 9.47082 21.5217 9.53757C21.5096 9.59825 21.4853 9.66196 21.4489 9.72871C21.4125 9.79546 21.3609 9.84097 21.2942 9.86525C21.1485 9.92593 20.9271 9.95627 20.6297 9.95627C20.5205 9.9684 19.9865 9.99874 19.0277 10.0473C18.0629 9.99268 17.541 9.96234 17.4621 9.95627C17.1891 9.93199 16.9949 9.85918 16.8796 9.73781C16.7643 9.61645 16.6976 9.4162 16.6793 9.13707C16.6308 8.36034 16.6126 7.79904 16.6247 7.45316C16.6369 7.16795 16.6976 6.70981 16.8068 6.07872C16.8493 5.86027 16.9919 5.76014 17.2346 5.77835C17.3256 5.78442 17.5623 5.79655 17.9446 5.81476C18.3268 5.83296 18.5544 5.8451 18.6272 5.85117C18.6697 5.85723 18.7789 5.88757 18.9549 5.94219C19.1309 5.99073 19.234 6.01804 19.2644 6.02411C19.5921 6.09086 19.8712 6.13333 20.1018 6.15154C20.3142 6.15154 20.481 6.15457 20.6024 6.16064C20.7298 6.16671 20.8694 6.18491 21.0211 6.21525C21.1789 6.24559 21.3063 6.29111 21.4034 6.35179C21.4823 6.4064 21.5339 6.45798 21.5581 6.50653C21.5824 6.55507 21.5824 6.62485 21.5581 6.71588C21.5581 6.72194 21.5551 6.73105 21.549 6.74318C21.4641 7.08907 21.3822 7.29235 21.3033 7.35303C21.2305 7.41371 21.009 7.44405 20.6388 7.44405H20.2929ZM18.7273 8.53632C18.7516 8.53632 18.7789 8.51508 18.8093 8.47261C18.8457 8.42406 18.8639 8.38462 18.8639 8.35428C18.8639 8.33 18.8517 8.17223 18.8275 7.88096C18.8032 7.6261 18.7668 7.47743 18.7182 7.43495C18.6697 7.39248 18.5241 7.37427 18.2813 7.38034C18.2692 7.38034 18.1236 7.40461 17.8444 7.45316V8.10852C17.8444 8.29663 17.8748 8.41192 17.9355 8.4544C17.9415 8.4544 17.9567 8.4635 17.981 8.48171C18.0052 8.49991 18.0265 8.51205 18.0447 8.51812C18.1175 8.53632 18.254 8.54542 18.4543 8.54542C18.5453 8.54542 18.6363 8.54239 18.7273 8.53632ZM21.8494 12.9054C22.0072 12.9054 22.1376 12.8417 22.2408 12.7142C22.344 12.5929 22.3955 12.4472 22.3955 12.2773C22.3955 12.0225 22.256 11.8647 21.9768 11.804C21.6795 11.7433 21.0879 11.713 20.2019 11.713H20.1928C20.1079 11.713 20.035 11.7282 19.9744 11.7585C19.9137 11.7828 19.8621 11.8283 19.8196 11.895C19.7832 11.9557 19.7559 12.0103 19.7377 12.0589C19.7195 12.1074 19.6983 12.1802 19.674 12.2773C19.6618 12.3198 19.6558 12.3593 19.6558 12.3957C19.6558 12.4745 19.674 12.5413 19.7104 12.5959C19.7529 12.6505 19.8166 12.69 19.9015 12.7142C19.9865 12.7446 20.0593 12.7628 20.12 12.7689C20.1807 12.781 20.2687 12.7931 20.384 12.8053C20.4082 12.8113 20.4264 12.8144 20.4386 12.8144C20.5781 12.8265 20.8087 12.8417 21.1303 12.8599C21.4519 12.8781 21.6825 12.8933 21.8221 12.9054H21.8494ZM21.6856 14.0341C21.6431 14.0341 21.4125 14.0432 20.9938 14.0614C20.5812 14.0856 20.3536 14.0978 20.3111 14.0978C20.1412 14.0978 19.9895 14.0856 19.856 14.0614C19.8257 14.0614 19.7832 14.0553 19.7286 14.0432C19.68 14.0371 19.6042 14.025 19.501 14.0068C19.3979 13.9886 19.3311 13.9764 19.3008 13.9703C19.2765 13.9703 19.228 13.9612 19.1552 13.943C19.0884 13.9309 19.0368 13.9157 19.0004 13.8975C18.964 13.8854 18.9155 13.8672 18.8548 13.8429C18.7941 13.8247 18.7273 13.8004 18.6545 13.7701C18.4543 13.6791 18.2631 13.5365 18.0811 13.3423C17.899 13.1481 17.808 12.96 17.808 12.778C17.808 12.3532 17.8687 12.0376 17.9901 11.8313C18.3299 11.2609 19.0277 10.9211 20.0836 10.8119C20.2231 10.7937 20.3657 10.7846 20.5114 10.7846C20.8694 10.7846 21.2911 10.8179 21.7766 10.8847C22.2681 10.9454 22.6595 11.0152 22.9508 11.094C23.2906 11.1911 23.5333 11.3307 23.679 11.5127C23.8307 11.6948 23.9065 11.9466 23.9065 12.2682C23.9065 12.6748 23.7457 12.9994 23.4241 13.2422C23.3998 13.2604 23.3513 13.2968 23.2785 13.3514C23.2117 13.406 23.1662 13.4394 23.1419 13.4515C23.1237 13.4697 23.0873 13.497 23.0327 13.5334C22.9781 13.5759 22.9356 13.6032 22.9053 13.6154C22.881 13.6336 22.8416 13.6578 22.7869 13.6882C22.7384 13.7185 22.6929 13.7428 22.6504 13.761C22.614 13.7792 22.5685 13.8004 22.5139 13.8247C22.4593 13.849 22.4016 13.8733 22.3409 13.8975C22.1225 13.9825 21.904 14.028 21.6856 14.0341Z" fill="#F7F7F7"/>
<path d="M9.04955 6.95254C9.04955 6.97682 9.03438 7.04053 9.00404 7.14369C8.9737 7.24685 8.95853 7.3045 8.95853 7.31663V7.54419L10.4149 7.44406C10.4816 6.84939 10.5332 6.47619 10.5696 6.32449C10.6 6.18492 10.7244 6.03019 10.9428 5.86028C10.9792 5.82994 11.0369 5.81173 11.1158 5.80566C11.1946 5.79353 11.2644 5.79656 11.3251 5.81477C11.5557 5.89972 11.7529 6.05749 11.9167 6.28808C12.0806 6.51867 12.1352 6.76747 12.0806 7.03446C12.0685 7.09515 12.0017 7.40766 11.8803 7.97199C11.765 8.53026 11.7013 8.93683 11.6892 9.19169C11.6892 9.2281 11.6862 9.28575 11.6801 9.36463C11.6801 9.43745 11.6771 9.486 11.671 9.51027C11.671 9.53454 11.668 9.57399 11.6619 9.6286C11.6558 9.68321 11.6498 9.71962 11.6437 9.73782C11.6376 9.75603 11.6285 9.78637 11.6164 9.82885C11.6042 9.87132 11.5891 9.9047 11.5709 9.92897C11.5587 9.94718 11.5405 9.97145 11.5163 10.0018C11.498 10.0321 11.4738 10.0625 11.4434 10.0928C11.316 10.2202 11.1582 10.2961 10.9701 10.3204C10.9216 10.3264 10.6697 10.3446 10.2146 10.375C9.86875 10.4053 9.47432 10.378 9.03134 10.2931C8.94639 10.2749 8.74614 10.2324 8.4306 10.1656C8.12112 10.0989 7.92391 10.0564 7.83895 10.0382C7.57802 9.98359 7.40205 9.9047 7.31102 9.80154C7.22607 9.69231 7.18359 9.4951 7.18359 9.2099C7.18359 9.0946 7.19876 8.81243 7.2291 8.36339C7.26551 7.90828 7.28372 7.65645 7.28372 7.6079C7.28979 7.49261 7.29585 7.22561 7.30192 6.80691C7.31406 6.38821 7.32013 6.15458 7.32013 6.10604C7.32013 6.0757 7.3444 6.03322 7.39294 5.97861C7.44149 5.92399 7.48093 5.89669 7.51127 5.89669C7.91784 5.94523 8.26069 6.00591 8.53982 6.07873C8.81896 6.15155 8.9919 6.24864 9.05865 6.37C9.1254 6.4853 9.12237 6.67948 9.04955 6.95254ZM8.71277 9.25541C9.46522 9.25541 9.90516 9.24934 10.0326 9.2372C10.0872 9.23113 10.1388 9.18562 10.1873 9.10067C10.2359 9.00965 10.2723 8.92469 10.2966 8.84581C10.3633 8.60308 10.2966 8.48172 10.0963 8.48172H8.72187C8.7158 8.60308 8.71277 8.6668 8.71277 8.67286V9.25541ZM13.0363 8.43621C13.0363 8.42407 13.0424 8.04481 13.0545 7.29843C13.0727 6.54598 13.0818 6.16672 13.0818 6.16065C13.0818 6.06963 13.1 5.99378 13.1364 5.9331C13.1729 5.86635 13.2093 5.82387 13.2457 5.80566C13.2821 5.78139 13.3488 5.74498 13.4459 5.69644C13.4581 5.69037 13.4884 5.6752 13.5369 5.65093C13.5855 5.62059 13.6158 5.60238 13.628 5.59631C13.6401 5.59025 13.6704 5.57508 13.719 5.5508C13.7736 5.52653 13.81 5.51439 13.8282 5.51439C13.8464 5.51439 13.8828 5.50529 13.9374 5.48709C13.9921 5.46888 14.0315 5.46585 14.0558 5.47798C14.08 5.48405 14.1256 5.48405 14.1923 5.47798C14.3379 5.48405 14.4472 5.51136 14.52 5.5599C14.5928 5.60238 14.6292 5.68127 14.6292 5.79656C14.6292 5.85724 14.6383 6.16065 14.6565 6.70678C14.6747 7.25292 14.6869 7.54419 14.6929 7.5806C14.7051 7.65342 14.7627 7.69589 14.8659 7.70803C15.3028 7.73837 15.5485 7.75961 15.6031 7.77174C15.7184 7.79602 15.7913 7.88097 15.8216 8.02661C15.8519 8.16617 15.8489 8.30878 15.8125 8.45441C15.7822 8.60005 15.7397 8.72141 15.6851 8.8185C15.6487 8.87918 15.5455 8.92166 15.3756 8.94593H14.6565V10.1201C14.6565 10.2172 14.6444 10.3962 14.6201 10.6571C14.6019 10.8028 14.5169 10.8786 14.3652 10.8847C14.0436 10.8908 13.7645 10.8877 13.5278 10.8756C13.3943 10.8695 13.279 10.821 13.182 10.73C13.0909 10.6389 13.0424 10.5297 13.0363 10.4023C13.0303 9.87436 13.0303 9.219 13.0363 8.43621ZM9.57748 10.8938C9.57748 10.9059 9.58658 10.9666 9.60478 11.0759C9.62906 11.1851 9.64119 11.2458 9.64119 11.2579C9.64119 11.3004 9.65636 11.4248 9.6867 11.6311C9.71705 11.8313 9.73525 11.9679 9.74132 12.0407C9.75345 12.1621 9.77166 12.2682 9.79593 12.3593L10.9155 12.2955C11.1764 12.2773 11.4586 12.2622 11.762 12.25C12.0715 12.2318 12.2808 12.2197 12.3901 12.2136C12.4993 12.2076 12.6267 12.2015 12.7724 12.1954C12.918 12.1833 13.0485 12.1712 13.1638 12.159C13.279 12.1469 13.4004 12.1347 13.5278 12.1226C13.6613 12.1105 13.8586 12.0892 14.1195 12.0589C14.2651 12.0468 14.3835 12.0407 14.4745 12.0407C14.5716 12.0407 14.6413 12.1226 14.6838 12.2864C14.7324 12.4442 14.7566 12.6354 14.7566 12.8599C14.7566 13.0662 14.702 13.2786 14.5928 13.497C14.5564 13.5577 14.4745 13.5972 14.347 13.6154C14.3167 13.6214 13.8859 13.6487 13.0545 13.6973C12.2232 13.7519 11.7954 13.7822 11.7711 13.7883C11.7408 13.7944 11.7074 13.7974 11.671 13.7974C10.8639 13.7974 10.1722 13.8126 9.59568 13.8429C9.56534 13.8429 9.47129 13.846 9.31351 13.852C9.15574 13.8642 9.05865 13.8702 9.02224 13.8702C8.70063 13.8702 8.49431 13.7913 8.40329 13.6336C8.36688 13.579 8.34868 13.5274 8.34868 13.4788C8.33654 13.3332 8.3153 12.96 8.28496 12.3593C8.26069 11.7585 8.24552 11.4157 8.23945 11.3307V11.1942C8.23338 11.1092 8.23035 11.0243 8.23035 10.9393L8.22125 10.8119C8.23338 10.8119 8.33654 10.7876 8.53072 10.7391C8.59747 10.7269 8.74311 10.7209 8.96763 10.7209C8.9919 10.7209 9.02528 10.7209 9.06775 10.7209C9.16484 10.7209 9.23463 10.7209 9.2771 10.7209C9.31958 10.7209 9.36813 10.7269 9.42274 10.7391C9.48342 10.7512 9.52286 10.7694 9.54107 10.7937C9.56534 10.818 9.57748 10.8513 9.57748 10.8938Z" fill="#F7F7F7"/>
<path d="M9.29981 28.6657C9.17749 29.1978 8.87652 29.937 8.14826 29.937C7.72158 30.7583 5.92007 30.8043 5.92007 29.3304C5.38278 29.2075 4.82968 28.4092 5.48322 27.68C4.88272 27.158 4.30818 25.7836 5.48322 24.5939C4.88272 23.903 4.78226 21.9145 6.76324 21.5078C6.55781 20.8015 6.96304 19.4811 8.8018 19.4811C8.62797 18.9437 8.87834 17.8519 10.2816 17.815C10.3764 17.1241 11.2772 16.0264 12.8417 16.441C13.2051 15.8422 13.8372 15.3738 15.0123 16.0264C15.4706 15.5198 16.6817 14.9947 17.8195 16.0264C18.3726 15.7808 19.659 15.3355 20.3796 16.441C21.0433 16.0725 22.5502 15.8989 23.3087 17.2623C24.1305 17.1855 25.5281 17.2254 25.8315 18.9205C26.5901 19.0126 27.5856 19.7496 27.3012 21.2236C27.633 21.3157 28.2402 21.6302 28.4864 22.4672C28.7708 23.4345 28.2968 24.0794 27.7279 24.4939C27.7279 24.4939 27.3486 25.9679 25.6893 25.3691C25.1432 25.4845 24.5469 25.5883 24.0413 25.3911C24.484 26.1974 24.8597 27.1651 24.7411 28.1328C24.6425 28.9378 23.53 30.6815 23.3087 31.1268L19.2892 32.6086C19.0313 32.716 18.9892 32.9318 19.01 33.0756C19.0459 33.0549 19.0759 33.0348 19.0996 33.0153C19.14 33.3103 19.0338 33.2402 19.01 33.0756C18.254 33.5106 14.9051 34.1616 14.2165 33.2456C13.4896 33.7062 12.4624 33.7062 11.9409 32.785C11.214 33.0921 10.0344 33.1613 10.0344 31.5492C9.68675 31.411 9.23865 30.528 9.74996 29.937L9.22026 29.1887L9.29981 28.6657Z" fill="#F8F8F8"/>
<path d="M14.1384 26.8272C14.1778 27.2571 13.9228 27.6305 13.5688 27.6611C13.2148 27.6917 12.8959 27.368 12.8565 26.9381C12.8171 26.5082 13.0721 26.1348 13.4261 26.1042C13.7801 26.0736 14.099 26.3973 14.1384 26.8272Z" fill="black"/>
<path fill-rule="evenodd" clip-rule="evenodd" d="M16.5241 28.1351C16.5613 28.3061 16.763 28.4183 17.0205 28.4334C16.558 29.3058 15.8766 29.6465 15.5934 29.7089C15.4783 29.7342 15.4055 29.848 15.4308 29.9631C15.4561 30.0781 15.5699 30.1509 15.685 30.1255C16.0766 30.0393 16.8227 29.6447 17.3428 28.7327C18.3444 29.447 19.3617 29.4307 19.8117 29.2995C19.9822 29.2497 20.0775 29.0735 20.0245 28.9058C19.9715 28.7381 19.7903 28.6425 19.6198 28.6923C19.3506 28.7708 18.5506 28.8115 17.7264 28.2276C17.8659 28.1188 17.9401 27.9813 17.9117 27.8503C17.8614 27.619 17.51 27.4953 17.1268 27.574C16.7437 27.6526 16.4738 27.9038 16.5241 28.1351Z" fill="black"/>
<path d="M17.7534 32.2428C16.6546 33.6077 17.7364 34.6253 18.4147 34.9634C19.5336 36.3468 28.2325 34.4562 28.9447 32.9806C29.5144 31.8001 28.4021 30.4905 27.7747 29.9833C27.7747 28.1757 26.4182 27.3856 25.7399 27.2165C25.9434 25.4827 24.909 24.9878 24.3664 24.957C24.7225 23.6198 23.8577 22.9896 22.9929 22.9742C22.9116 22.0888 22.1282 22.0212 21.6195 22.0058C20.4393 21.268 19.6356 21.7599 19.2286 22.1903C18.565 22.0058 17.5997 22.9742 17.906 23.8964C16.2323 24.5466 16.7699 26.4941 17.7534 27.8621C16.7767 28.1941 17.3464 29.4146 17.7534 29.9833C16.8174 30.7949 17.3634 31.8278 17.7534 32.2428Z" fill="#F8F8F8"/>
<path fill-rule="evenodd" clip-rule="evenodd" d="M20.1574 21.7641C19.7861 21.8427 19.5016 22.0579 19.3073 22.2633L19.2632 22.31L19.2013 22.2928C18.9271 22.2166 18.5593 22.3777 18.2859 22.6974C18.0168 23.012 17.8703 23.4466 18.0084 23.8626L18.0404 23.9589L17.9458 23.9956C17.547 24.1505 17.2874 24.3793 17.1315 24.6509C16.9749 24.9236 16.9178 25.2485 16.9409 25.6029C16.9873 26.3148 17.3559 27.1246 17.8412 27.7996L17.9253 27.9165L17.7889 27.9629C17.5688 28.0377 17.4462 28.1579 17.3824 28.2977C17.3168 28.4413 17.3073 28.6189 17.3409 28.8158C17.4083 29.211 17.6425 29.643 17.8413 29.921L17.8979 30L17.8245 30.0636C17.3865 30.4434 17.3 30.8664 17.3626 31.2441C17.4265 31.6294 17.6476 31.9729 17.8323 32.1695L17.8959 32.2371L17.8377 32.3094C17.5725 32.6389 17.4438 32.9411 17.4046 33.2112C17.3654 33.481 17.4143 33.7258 17.5155 33.9428C17.7199 34.381 18.1375 34.7052 18.4635 34.8677L18.4843 34.8781L18.4988 34.8961C18.6156 35.0405 18.8445 35.1554 19.1838 35.2316C19.5192 35.307 19.9447 35.3407 20.4325 35.3378C21.4074 35.3321 22.6147 35.1806 23.8124 34.9393C25.0098 34.6981 26.1927 34.3682 27.1188 34.0078C27.582 33.8275 27.9781 33.6407 28.2788 33.4552C28.5836 33.2671 28.7747 33.0895 28.8498 32.934C29.114 32.3867 28.9927 31.8022 28.7155 31.2792C28.4385 30.7564 28.0141 30.3128 27.7088 30.066L27.6692 30.034V29.983C27.6692 28.241 26.3643 27.4816 25.7153 27.3198L25.6242 27.2971L25.6352 27.2039C25.7342 26.36 25.5309 25.835 25.2538 25.5181C24.9742 25.1982 24.6083 25.0773 24.3616 25.0633L24.2309 25.0559L24.2646 24.9293C24.4355 24.2872 24.31 23.8336 24.0577 23.539C23.8021 23.2407 23.4016 23.0879 22.9923 23.0806L22.8967 23.0789L22.8879 22.9837C22.869 22.7783 22.8102 22.6266 22.7297 22.5129C22.6491 22.3992 22.543 22.318 22.4215 22.2597C22.1744 22.141 21.8722 22.1199 21.6175 22.1122L21.5886 22.1113L21.5641 22.096C20.9937 21.7394 20.5257 21.6861 20.1574 21.7641ZM21.6526 21.8999C21.0533 21.5321 20.5378 21.4655 20.1132 21.5554C19.7136 21.64 19.4071 21.8605 19.1951 22.0727C18.8213 22.0042 18.4062 22.2286 18.1237 22.5588C17.84 22.8905 17.6614 23.3597 17.7783 23.8339C17.3889 24.0035 17.1169 24.2478 16.9465 24.5446C16.7639 24.8626 16.703 25.232 16.728 25.6168C16.7753 26.3429 17.1296 27.1423 17.5904 27.8136C17.3952 27.9073 17.2639 28.0433 17.1883 28.2091C17.0987 28.4055 17.0929 28.6307 17.1306 28.8516C17.1992 29.2542 17.4177 29.6755 17.6137 29.967C17.1764 30.3835 17.0819 30.8555 17.1521 31.279C17.2176 31.674 17.4251 32.0223 17.6157 32.247C17.3678 32.5741 17.2361 32.8868 17.1934 33.1806C17.1476 33.4961 17.2055 33.7828 17.3222 34.033C17.5493 34.52 17.9986 34.8696 18.3482 35.0485C18.5135 35.2395 18.7944 35.3628 19.137 35.4397C19.4943 35.52 19.9375 35.554 20.4337 35.5511C21.4268 35.5453 22.6485 35.3914 23.8545 35.1484C25.0607 34.9055 26.2559 34.5725 27.1962 34.2066C27.6661 34.0238 28.0751 33.8316 28.3909 33.6367C28.7025 33.4444 28.939 33.24 29.0419 33.0267C29.3475 32.3935 29.1975 31.733 28.904 31.1793C28.6223 30.6475 28.2005 30.1979 27.8822 29.9323C27.8581 28.1706 26.5799 27.3557 25.8567 27.1376C25.9367 26.2983 25.7282 25.7366 25.4145 25.3777C25.1356 25.0587 24.7819 24.9095 24.4999 24.8642C24.6401 24.2278 24.509 23.738 24.2197 23.4003C23.9364 23.0695 23.5139 22.8994 23.089 22.8712C23.0592 22.677 22.9949 22.5182 22.9038 22.3896C22.7987 22.2412 22.6619 22.1385 22.5138 22.0674C22.2326 21.9323 21.9033 21.9083 21.6526 21.8999Z" fill="black"/>
<g filter="url(#filter0_f_3109_26342)">
<ellipse cx="1.65859" cy="0.552985" rx="1.65859" ry="0.552985" transform="matrix(0.99284 -0.119453 0.12643 0.991976 11.1836 28.3462)" fill="#FFCACA"/>
</g>
<path fill-rule="evenodd" clip-rule="evenodd" d="M11.0903 24.754C11.1437 24.7293 11.2071 24.7525 11.2319 24.806C11.417 25.2057 11.3783 25.575 11.2549 25.8707C11.1467 26.1299 10.9733 26.3336 10.8273 26.4581C10.8828 26.7518 10.7848 27.0507 10.6385 27.305C10.4797 27.581 10.2546 27.8211 10.0641 27.9741C10.0181 28.0109 9.95098 28.0036 9.91411 27.9577C9.87723 27.9117 9.88459 27.8446 9.93053 27.8077C10.1034 27.6689 10.3098 27.4484 10.4536 27.1986C10.5984 26.947 10.6706 26.6822 10.6056 26.4452L10.5864 26.3754L10.6441 26.3318C10.7735 26.234 10.9525 26.0412 11.058 25.7885C11.1621 25.5392 11.1945 25.2329 11.0383 24.8957C11.0135 24.8422 11.0368 24.7788 11.0903 24.754Z" fill="#2B2B2B"/>
<g filter="url(#filter1_f_3109_26342)">
<path fill-rule="evenodd" clip-rule="evenodd" d="M19.7556 24.8078C20.163 24.6767 20.3759 24.216 20.2312 23.7787C20.0865 23.3415 19.6389 23.0934 19.2316 23.2245C18.8242 23.3556 18.6113 23.8163 18.756 24.2536C18.9007 24.6908 19.3483 24.9389 19.7556 24.8078ZM19.0721 25.0289C19.3452 25.3124 19.3134 25.7199 19.0013 25.9391C18.6891 26.1583 18.2147 26.1063 17.9417 25.8228C17.6687 25.5394 17.7004 25.1319 18.0126 24.9127C18.3247 24.6934 18.7991 24.7455 19.0721 25.0289ZM22.026 24.4209C21.8803 24.8013 22.0589 25.1601 22.4251 25.2222C22.7912 25.2844 23.2061 25.0264 23.3518 24.6459C23.4975 24.2655 23.3189 23.9067 22.9528 23.8446C22.5867 23.7824 22.1717 24.0404 22.026 24.4209ZM20.5991 23.6841C20.6272 24.1483 20.99 24.4756 21.4092 24.4152C21.8285 24.3547 22.1456 23.9294 22.1175 23.4652C22.0893 23.0009 21.7266 22.6736 21.3073 22.7341C20.8881 22.7945 20.571 23.2199 20.5991 23.6841ZM19.3614 27.7348C19.1433 27.4432 18.8724 26.6132 19.5335 25.625C19.6739 25.3906 20.0006 24.9572 20.3341 24.8018C20.5565 24.6982 21.1371 24.5649 21.7604 25.0812C21.7955 25.1102 21.833 25.1395 21.8721 25.1699C22.208 25.4318 22.6578 25.7826 22.6326 26.8453C22.6279 27.0431 22.3063 27.5286 21.7324 27.6086C21.5412 27.6077 21.4272 27.5479 21.3239 27.4938C21.2163 27.4374 21.1204 27.3872 20.9612 27.4162C20.8918 27.4399 20.7398 27.5084 20.6872 27.5927C20.6214 27.698 20.3741 27.9482 20.0236 27.9851C19.7433 28.0145 19.4653 27.8305 19.3614 27.7348Z" fill="#FFCACA"/>
</g>
<g filter="url(#filter2_f_3109_26342)">
<path d="M20.5288 26.0135C20.412 26.1869 20.4595 26.3323 20.4978 26.3834C20.5161 26.4001 20.5649 26.4323 20.6143 26.427C20.6761 26.4205 20.7197 26.3765 20.7313 26.358C20.7406 26.3433 20.7674 26.3312 20.7796 26.327C20.8346 26.317 20.8466 26.3603 20.9154 26.3605C21.0165 26.3463 21.0733 26.2611 21.0742 26.2264C21.0795 26.0184 20.9803 25.9662 20.9212 25.9174C20.8116 25.8271 20.7093 25.8507 20.6701 25.8689C20.6113 25.8962 20.5536 25.9723 20.5288 26.0135Z" fill="white"/>
</g>
</g>
<defs>
<filter id="filter0_f_3109_26342" x="11.0406" y="27.8999" width="3.71964" height="1.59317" filterUnits="userSpaceOnUse" color-interpolation-filters="sRGB">
<feFlood flood-opacity="0" result="BackgroundImageFix"/>
<feBlend mode="normal" in="SourceGraphic" in2="BackgroundImageFix" result="shape"/>
<feGaussianBlur stdDeviation="0.106667" result="effect1_foregroundBlur_3109_26342"/>
</filter>
<filter id="filter1_f_3109_26342" x="17.5445" y="22.5137" width="6.0712" height="5.6879" filterUnits="userSpaceOnUse" color-interpolation-filters="sRGB">
<feFlood flood-opacity="0" result="BackgroundImageFix"/>
<feBlend mode="normal" in="SourceGraphic" in2="BackgroundImageFix" result="shape"/>
<feGaussianBlur stdDeviation="0.106667" result="effect1_foregroundBlur_3109_26342"/>
</filter>
<filter id="filter2_f_3109_26342" x="20.2398" y="25.6387" width="1.04776" height="1.00235" filterUnits="userSpaceOnUse" color-interpolation-filters="sRGB">
<feFlood flood-opacity="0" result="BackgroundImageFix"/>
<feBlend mode="normal" in="SourceGraphic" in2="BackgroundImageFix" result="shape"/>
<feGaussianBlur stdDeviation="0.106667" result="effect1_foregroundBlur_3109_26342"/>
</filter>
<clipPath id="clip0_3109_26342">
<rect width="32" height="32" rx="16" fill="white"/>
</clipPath>
</defs>
</svg>
